<?xml version="1.0" encoding="UTF-8"?>
<svg id="Camada_2" data-name="Camada 2" xmlns="http://www.w3.org/2000/svg" viewBox="0 0 24 23.9">
  <defs>
    <style>
      .cls-1 {
        fill: #fff;
      }
    </style>
  </defs>
  <g id="Camada_1-2" data-name="Camada 1">
    <g>
      <path class="cls-1" d="m24,11.88v.51s-.02.09-.02.14c0,.03,0,.06,0,.09,0,.04,0,.08.02.11v.23c-.08.3-.06.6-.08.9-.06.78-.29,1.51-.55,2.24-.67,1.84-1.74,3.43-3.18,4.76-1.21,1.12-2.6,1.96-4.16,2.52-.63.22-1.26.42-1.92.5-.27.04-.33-.02-.35-.3,0-.08,0-.16,0-.23,0-2.49,0-4.97,0-7.46,0-.55.01-.57.56-.57.63,0,1.27,0,1.9,0,.27,0,.35-.06.39-.31.13-.85.27-1.71.39-2.57.04-.31-.01-.36-.32-.36-.77,0-1.53,0-2.3,0-.11,0-.22,0-.33,0-.18,0-.27-.09-.28-.27,0-.07,0-.14,0-.21,0-.67,0-1.34,0-2.01,0-.52.18-.97.57-1.34.3-.28.66-.4,1.05-.46.47-.06.95-.05,1.43-.05.37,0,.42-.05.42-.42,0-.64,0-1.28,0-1.92,0-.33-.06-.38-.39-.43-.63-.1-1.26-.14-1.89-.17-.85-.04-1.69.07-2.47.43-1.16.53-1.81,1.47-2.1,2.68-.11.44-.15.89-.15,1.34.01.77,0,1.54,0,2.32,0,.5-.02.52-.53.52-.7,0-1.41,0-2.11,0-.34,0-.4.06-.4.39,0,.82,0,1.64,0,2.46,0,.33.06.38.38.39.74,0,1.48,0,2.23,0,.39,0,.43.04.43.43,0,2.56,0,5.13,0,7.69,0,.05,0,.11,0,.16-.02.23-.11.3-.34.27-.48-.05-.94-.18-1.39-.32-1.68-.51-3.19-1.34-4.51-2.51-1.95-1.72-3.21-3.84-3.82-6.35-.12-.49-.11-1-.15-1.5,0-.08.02-.17-.02-.25v-.19s.03-.06,0-.09v-.23c.04-.11.04-.22,0-.33v-.7s.02-.09.02-.14c0-.03,0-.06,0-.09,0-.04,0-.08-.02-.11v-.14c.04-.36.04-.73.08-1.09.08-.79.33-1.53.61-2.27.67-1.73,1.69-3.23,3.05-4.48C5.42,1.58,7.37.57,9.61.13c.33-.06.68-.07,1.01-.08.13,0,.26,0,.39-.05h.19s.06.03.09,0h.23c.11.04.22.04.33,0h.66c.05.04.11.02.17.02.04,0,.08.01.11-.02h.19c.3.08.6.05.9.08.92.08,1.78.36,2.63.69,1.27.51,2.42,1.23,3.45,2.13,1.17,1.02,2.1,2.22,2.81,3.59.51.99.87,2.03,1.09,3.13.07.35.07.71.09,1.06,0,.11,0,.22.05.32v.14s-.02.09-.02.14c0,.05-.02.1.02.14v.19c-.04.09-.04.19,0,.28Z"/>
      <path class="cls-1" d="m11.86,0c-.11.06-.22.07-.33,0h.33Z"/>
      <path class="cls-1" d="m0,12.12c.06.11.07.22,0,.33v-.33Z"/>
      <path class="cls-1" d="m24,11.88c-.06-.09-.06-.19,0-.28v.28Z"/>
      <path class="cls-1" d="m12.71.04c-.07,0-.14.01-.19-.04h.19s.04.03,0,.04Z"/>
      <path class="cls-1" d="m23.96,11.27s-.03-.11.04-.14v.14s-.03.03-.04,0Z"/>
      <path class="cls-1" d="m.04,11.27c0,.05,0,.1-.04.14v-.14s.03-.04.04,0Z"/>
      <path class="cls-1" d="m23.96,11.27s.03,0,.04,0v.14s-.05-.09-.04-.14Z"/>
      <path class="cls-1" d="m23.96,12.54c0-.05,0-.1.04-.14v.14s-.02.04-.04,0Z"/>
      <path class="cls-1" d="m11.3,0s-.06.05-.09,0h.09Z"/>
      <path class="cls-1" d="m12.71.04s0-.03,0-.04h.09s-.05.04-.09.04Z"/>
      <path class="cls-1" d="m0,11.09s.04.05.04.09c-.01.03-.02.03-.04,0v-.09Z"/>
      <path class="cls-1" d="m0,11.18s.03,0,.04,0c0,.03,0,.06,0,.09-.01,0-.03,0-.04,0v-.09Z"/>
      <path class="cls-1" d="m23.96,12.54s.03,0,.04,0v.09s-.02.04-.04,0c0-.03,0-.06,0-.09Z"/>
      <path class="cls-1" d="m23.96,12.63s.03,0,.04,0v.09s-.04-.05-.04-.09Z"/>
      <path class="cls-1" d="m0,12.68s.06.06,0,.09v-.09Z"/>
    </g>
  </g>
</svg>