<?xml version="1.0" encoding="UTF-8"?>
<svg id="Camada_2" data-name="Camada 2" xmlns="http://www.w3.org/2000/svg" viewBox="0 0 24 24.02">
  <defs>
    <style>
      .cls-1 {
        fill: #fff;
      }
    </style>
  </defs>
  <g id="Camada_1-2" data-name="Camada 1">
    <g>
      <path class="cls-1" d="m13.02,24.02c.17-.1.36-.03.54-.04.21-.01.42,0,.63,0,.02.01.02.02.01.03,0,.01-.01.02-.02.02h-1.17Z"/>
      <path class="cls-1" d="m9.88,23.97c.32,0,.64,0,.96,0,.07,0,.16-.03.22.05h-1.17s-.02-.02-.02-.03c0-.01,0-.02.01-.02Z"/>
      <path class="cls-1" d="m11,0c-.19.1-.39.03-.59.04-.18.01-.36,0-.54,0-.01-.01-.02-.02-.01-.03,0,0,.01-.01.02-.01h1.13Z"/>
      <path class="cls-1" d="m14.2.05c-.3,0-.61,0-.91,0-.07,0-.16.03-.22-.05h1.13s.02.02.02.03c0,.01,0,.02-.01.02Z"/>
      <path class="cls-1" d="m15.27,0c-.13.09-.28.03-.42.04-.02,0-.02-.02-.02-.03,0,0,.01-.01.02-.01h.42Z"/>
      <path class="cls-1" d="m8.75,24.02c.13-.1.28-.03.42-.04.02,0,.02.02.02.03,0,.01-.01.02-.02.02h-.42Z"/>
      <path class="cls-1" d="m9.88,0s0,.03,0,.04c-.12,0-.25,0-.37,0-.01-.01-.02-.02-.01-.03,0,0,.01-.01.02-.01h.38Z"/>
      <path class="cls-1" d="m9.17.04c-.13,0-.25,0-.38,0-.01,0-.02-.02-.01-.03,0,0,0-.01.01-.01h.38s.02.02.01.03c0,0-.01.01-.02.01Z"/>
      <path class="cls-1" d="m9.88,23.97s0,.03,0,.05h-.38s-.02-.02-.02-.03c0-.01,0-.02.01-.02.12,0,.25,0,.37,0Z"/>
      <path class="cls-1" d="m14.52,23.97c.13,0,.25,0,.38,0,.01,0,.02.02.01.03,0,0-.01.01-.02.01h-.38s-.02-.02-.02-.03c0,0,.01-.01.02-.01Z"/>
      <path class="cls-1" d="m14.85,0s0,.03,0,.04c-.11,0-.22,0-.33,0-.02,0-.02-.02-.02-.03,0-.01.01-.02.02-.02h.33Z"/>
      <path class="cls-1" d="m15.88,0C15.77.08,15.66.07,15.56,0h.33Z"/>
      <path class="cls-1" d="m14.52,0s0,.03,0,.05c-.11,0-.22,0-.33,0,0-.02,0-.03,0-.05h.33Z"/>
      <path class="cls-1" d="m9.17.04s0-.03,0-.04h.33s0,.03,0,.05c-.11,0-.22,0-.33,0Z"/>
      <path class="cls-1" d="m9.5,23.97s0,.03,0,.05h-.33s0-.03,0-.04c.11,0,.22,0,.33,0Z"/>
      <path class="cls-1" d="m14.52,23.97s0,.03,0,.05h-.33s0-.03,0-.05c.11,0,.22,0,.33,0Z"/>
      <path class="cls-1" d="m14.9,24.02s0-.03,0-.04c.11.01.23-.05.33.04h-.33Z"/>
      <path class="cls-1" d="m8.14,24.02c.09-.08.19-.07.28,0h-.28Z"/>
      <path class="cls-1" d="m8.8,0s0,.03,0,.04c-.09,0-.2.05-.28-.04h.28Z"/>
      <path class="cls-1" d="m15.46,24.02c.09-.07.19-.08.28,0h-.28Z"/>
      <path class="cls-1" d="m8.19.04s-.09,0-.14,0c-.01,0-.02-.02-.01-.03,0,0,0-.01.01-.01h.14s.02.02.02.03c0,0-.01.01-.02.01Z"/>
      <path class="cls-1" d="m8.05,0s0,.03,0,.04c-.05,0-.11.04-.14-.04h.14Z"/>
      <path class="cls-1" d="m23.96,16.66s0-.09,0-.14c.01-.02.02-.02.04,0v.14s-.03.02-.04,0Z"/>
      <path class="cls-1" d="m23.96,16.89s0-.09,0-.14c.01-.02.02-.02.04,0v.14s-.03.02-.04,0Z"/>
      <path class="cls-1" d="m24,7.41s-.05-.06-.04-.1c.01-.02.03-.02.04,0v.09Z"/>
      <path class="cls-1" d="m23.96,6.94s-.02-.08.04-.09v.09s-.03.02-.04,0Z"/>
      <path class="cls-1" d="m8.19.04s0-.03,0-.04h.09c-.01.06-.05.05-.09.04Z"/>
      <path class="cls-1" d="m24,16.75s-.03,0-.04,0c0-.03,0-.06,0-.09.01,0,.03,0,.04,0v.09Z"/>
      <path class="cls-1" d="m24,7.32s-.03,0-.04,0c0-.03,0-.06,0-.09.01-.02.03-.02.04,0v.09Z"/>
      <path class="cls-1" d="m24,7.22s-.03,0-.04,0c0-.03,0-.06,0-.09.01-.02.03-.02.04,0v.09Z"/>
      <path class="cls-1" d="m24,16.51s-.03,0-.04,0c0-.04,0-.08.04-.1v.09Z"/>
      <path class="cls-1" d="m24,7.13s-.03,0-.04,0c0-.03,0-.06,0-.09.01-.02.03-.02.04,0v.09Z"/>
      <path class="cls-1" d="m23.96,16.89s.03,0,.04,0v.09c-.06-.01-.05-.05-.04-.09Z"/>
      <path class="cls-1" d="m24,7.04s-.03,0-.04,0c0-.03,0-.06,0-.09.01,0,.03,0,.04,0v.09Z"/>
      <path class="cls-1" d="m16.02,24.02c.03-.07.06-.07.09,0h-.09Z"/>
      <path class="cls-1" d="m24,6.8c-.05-.11-.04-.23-.05-.34-.05-1.22-.39-2.36-1.03-3.39-.79-1.27-1.92-2.11-3.33-2.59-.83-.28-1.7-.41-2.57-.43-.27,0-.54.03-.81-.05h-.33c-.11.04-.22.04-.33,0h-.28c-.14.05-.29.01-.43.02-.11,0-.22,0-.33,0-.11,0-.22,0-.34,0-.37-.01-.74.03-1.11-.02h-2.06c-.37.05-.74,0-1.12.02-.13,0-.25,0-.38,0-.11,0-.22,0-.33,0-.12,0-.24,0-.36,0-.1-.01-.2.02-.3-.02h-.23s-.07.02-.11.02c-.04,0-.08,0-.12,0-.05,0-.1.02-.14-.02h-.19s-.06.02-.09.02c-.57.05-1.14.01-1.7.1-.99.15-1.94.42-2.8.95C1.49,2.08.56,3.57.19,5.45,0,6.5.01,7.56,0,8.62c.03.1.02.2.02.3,0,.08,0,.15,0,.23,0,.08,0,.15,0,.23,0,.12.01.24-.02.35,0,.08,0,.16,0,.25,0,.31,0,.61,0,.92,0,.73,0,1.45,0,2.18,0,.32,0,.64,0,.96,0,.08,0,.16,0,.25.03.09.02.18.02.27,0,.12,0,.23,0,.35,0,.13.02.26-.02.39-.02.8-.01,1.61.06,2.41.09,1,.32,1.97.81,2.85,1.23,2.22,3.18,3.26,5.66,3.42.38.02.76-.02,1.14.04h.47c.09-.04.19-.04.28,0h.33c.14-.05.29-.01.43-.02.11,0,.22,0,.33,0,.13,0,.25,0,.38,0,.39.01.77-.03,1.16.02h1.97c.39-.05.77-.01,1.16-.02.11,0,.22,0,.34,0,.12,0,.24,0,.36,0,.11.01.23-.03.34.02h.23c.09-.04.19-.04.28,0h.28s.06-.03.09,0h.14c.18-.05.37-.02.56-.02.67,0,1.34-.05,2-.2,1.18-.27,2.24-.79,3.12-1.63,1.21-1.16,1.8-2.61,2-4.26.03-.26-.03-.53.07-.79v-.14s-.02-.07-.02-.11c0-.04,0-.08,0-.12,0-.03,0-.06,0-.09,0-.04,0-.08,0-.12,0-.04-.01-.08.02-.11V7.41s-.02-.07-.02-.11c0-.03,0-.06,0-.09,0-.03,0-.06,0-.09,0-.03,0-.06,0-.09,0-.03,0-.06,0-.09,0-.04,0-.08.02-.11v-.05Zm-2.15,8.45c-.02.58-.02,1.17-.06,1.75-.06.86-.19,1.71-.6,2.5-.57,1.1-1.48,1.76-2.66,2.08-.69.18-1.4.23-2.12.25-.43,0-.85.06-1.28.03-.13-.04-.26,0-.39-.02-.11,0-.22,0-.32,0-.11,0-.22,0-.34,0-.48.01-.96-.02-1.44.02-.41,0-.81,0-1.22,0-.48-.04-.96,0-1.44-.02-.21,0-.43,0-.64,0-.15,0-.3-.02-.45.02-.2,0-.4,0-.6,0-.09-.05-.2,0-.29-.04-.09.08-.19,0-.28,0-.36,0-.73,0-1.09-.04-.94-.09-1.85-.31-2.61-.88-.88-.66-1.4-1.56-1.6-2.64-.14-.73-.19-1.46-.19-2.2,0-.21-.06-.41-.04-.62,0-.08,0-.15.04-.22-.03-.09,0-.19-.02-.28,0-.08,0-.16,0-.24,0-.1,0-.19,0-.29,0-.1,0-.2,0-.3,0-.31,0-.62,0-.93,0-.79,0-1.58,0-2.37,0-.28,0-.56,0-.84,0-.11,0-.23,0-.34,0-.1,0-.19,0-.29,0-.09,0-.19,0-.28,0-.08-.01-.16.02-.24-.08-.17-.07-.36-.03-.52.06-.27.02-.54.04-.81.05-.85.11-1.7.42-2.51.42-1.07,1.15-1.82,2.21-2.26.66-.27,1.35-.37,2.06-.43.62-.05,1.25,0,1.87-.09.09-.03.19,0,.29-.02.12,0,.25,0,.37,0,.11,0,.22,0,.34,0,.15,0,.29,0,.44,0,1.34,0,2.69,0,4.03,0,.13,0,.26,0,.39,0,.11,0,.22,0,.34,0,.1,0,.19-.02.29.02.49.07.99.03,1.49.06.92.06,1.83.15,2.68.56.87.42,1.5,1.08,1.88,1.97.26.62.39,1.27.44,1.94.04.71.08,1.42.09,2.13.04.09,0,.19.02.28,0,.11,0,.22,0,.33,0,.1,0,.19,0,.29,0,.1,0,.2,0,.3,0,.32,0,.65,0,.97,0,.65,0,1.3,0,1.95,0,.32,0,.65,0,.97,0,.1,0,.2,0,.3,0,.1,0,.19,0,.29,0,.11,0,.22,0,.33,0,.12.02.25-.02.37Z"/>
      <path class="cls-1" d="m14.29,2.2c-1.36,0-2.72,0-4.08,0v-.03c1.36,0,2.72,0,4.08,0,0,.01,0,.02,0,.03Z"/>
      <path class="cls-1" d="m2.22,10.79c0,.8,0,1.6,0,2.39-.01,0-.02,0-.03,0,0-.8,0-1.59,0-2.39.01,0,.02,0,.03,0Z"/>
      <path class="cls-1" d="m21.84,13c0-.66,0-1.31,0-1.97.01-.02.02-.02.04,0,0,.66,0,1.31,0,1.97-.01.02-.02.02-.04,0Z"/>
      <path class="cls-1" d="m12.65,21.85c.19-.08.4-.03.59-.04.29,0,.57,0,.86,0,.02,0,.02.02.01.03,0,0-.01.01-.02.01-.48,0-.97,0-1.45,0Z"/>
      <path class="cls-1" d="m9.97,21.82c.42,0,.84,0,1.26,0,.07,0,.14-.02.2.04-.48,0-.97,0-1.45,0-.02,0-.02-.01-.02-.02,0,0,0-.01.01-.01Z"/>
      <path class="cls-1" d="m21.88,11.02s-.02,0-.04,0c0-.33,0-.66,0-.99.01-.02.02-.02.03,0,0,.33,0,.66,0,.99Z"/>
      <path class="cls-1" d="m21.84,13s.02,0,.04,0c0,.33,0,.66,0,.99-.01.02-.02.02-.03,0,0-.33,0-.66,0-.99Z"/>
      <path class="cls-1" d="m2.19,13.18s.02,0,.03,0c0,.31,0,.63,0,.94-.01,0-.02,0-.03,0v-.94Z"/>
      <path class="cls-1" d="m2.22,10.79s-.02,0-.03,0v-.84s.02,0,.03,0c0,.28,0,.56,0,.84Z"/>
      <path class="cls-1" d="m9.97,21.82s0,.02,0,.04c-.22,0-.44,0-.66,0-.02,0-.02-.01-.02-.02,0,0,0-.01.01-.01.22,0,.44,0,.66,0Z"/>
      <path class="cls-1" d="m10.21,2.17s0,.02,0,.03h-.42s-.02-.02-.01-.02c0,0,.01-.01.02-.01.14,0,.28,0,.42,0Z"/>
      <path class="cls-1" d="m9.31,21.82s0,.02,0,.03c-.14,0-.28,0-.43,0,.13-.08.28-.02.42-.03Z"/>
      <path class="cls-1" d="m14.29,2.2s0-.02,0-.03c.13,0,.25,0,.38,0,0,.01,0,.02,0,.03-.12,0-.25,0-.37,0Z"/>
      <path class="cls-1" d="m9.46,2.2c-.13,0-.25,0-.38,0-.01,0-.02-.02-.01-.02,0,0,.01,0,.02,0,.12,0,.25,0,.37,0,.01,0,.02.02.01.02,0,0-.01.01-.02.01Z"/>
      <path class="cls-1" d="m14.76,21.82c.13,0,.26-.05.37.03-.13,0-.25,0-.38,0-.01,0-.02-.02-.01-.02,0,0,.01,0,.02,0Z"/>
      <path class="cls-1" d="m21.85,15.25c0-.13,0-.25,0-.38,0-.02.02-.02.03,0,0,.13.05.26-.03.38Z"/>
      <path class="cls-1" d="m9.46,2.2s0-.02,0-.03c.11,0,.22,0,.33,0,0,.01,0,.02,0,.03-.11,0-.22,0-.33,0Z"/>
      <path class="cls-1" d="m14.66,2.2s0-.02,0-.03c.11,0,.22,0,.33,0,.02,0,.02.01.02.02,0,0,0,.01-.01.01-.11,0-.22,0-.33,0Z"/>
      <path class="cls-1" d="m2.22,9.94s-.02,0-.03,0c0-.11,0-.22,0-.33.01,0,.02,0,.03,0,0,.11,0,.22,0,.33Z"/>
      <path class="cls-1" d="m14.76,21.82s0,.02,0,.03c-.11,0-.22,0-.33,0-.01,0-.02-.02-.01-.03,0,0,.01-.01.02-.01.11,0,.22,0,.33,0Z"/>
      <path class="cls-1" d="m21.85,9.47v-.33s.02,0,.03,0c0,.11,0,.22,0,.33-.01,0-.02,0-.03,0Z"/>
      <path class="cls-1" d="m21.88,14.87s-.02,0-.03,0c0-.11,0-.22,0-.33.01,0,.02,0,.03,0,0,.11,0,.22,0,.33Z"/>
      <path class="cls-1" d="m14.43,21.82s0,.03,0,.04c-.11,0-.22,0-.33,0,0-.01,0-.03,0-.04.11,0,.22,0,.33,0Z"/>
      <path class="cls-1" d="m2.22,9.05c0,.09,0,.19,0,.28-.01,0-.02,0-.03,0,0-.09,0-.19,0-.28.01,0,.02,0,.03,0Z"/>
      <path class="cls-1" d="m8,21.82c.1,0,.2-.05.29.04-.1,0-.2.03-.29-.04Z"/>
      <path class="cls-1" d="m2.19,9.34s.02,0,.03,0c0,.09,0,.19,0,.28-.01,0-.02,0-.03,0,0-.09,0-.19,0-.28Z"/>
      <path class="cls-1" d="m21.85,9.47s.02,0,.03,0c0,.09,0,.19,0,.28-.01.02-.02.02-.03,0,0-.09,0-.19,0-.28Z"/>
      <path class="cls-1" d="m21.85,9.76s.02,0,.03,0c0,.09,0,.19,0,.28-.01,0-.02,0-.03,0,0-.09,0-.19,0-.28Z"/>
      <path class="cls-1" d="m21.88,9.15s-.02,0-.03,0c0-.1,0-.19,0-.29.08.09.03.19.03.29Z"/>
      <path class="cls-1" d="m21.85,13.98s.02,0,.03,0c0,.09,0,.19,0,.28,0,.02-.02.02-.03,0,0-.09,0-.19,0-.28Z"/>
      <path class="cls-1" d="m2.19,14.12s.02,0,.03,0c0,.09,0,.19,0,.28-.01,0-.02,0-.03,0,0-.09,0-.19,0-.28Z"/>
      <path class="cls-1" d="m21.85,14.26s.02,0,.03,0c0,.09,0,.19,0,.28-.01,0-.02,0-.03,0,0-.09,0-.19,0-.28Z"/>
      <path class="cls-1" d="m2.19,14.4s.02,0,.03,0c0,.09,0,.19,0,.28-.01,0-.02,0-.03,0,0-.09,0-.19,0-.28Z"/>
      <path class="cls-1" d="m2.22,14.92c0,.09,0,.19,0,.28-.08-.09-.03-.19-.03-.29.01-.02.02-.02.03,0Z"/>
      <path class="cls-1" d="m9.08,2.16s0,.02,0,.03c-.09,0-.19,0-.28,0,.09-.07.19-.03.28-.03Z"/>
      <path class="cls-1" d="m14.99,2.2s0-.02,0-.03c.1,0,.2-.04.28.03-.09,0-.19,0-.28,0Z"/>
      <path class="cls-1" d="m2.22,9.05s-.02,0-.03,0c0-.08-.04-.17.03-.24,0,.08,0,.16,0,.24Z"/>
      <path class="cls-1" d="m2.22,14.92s-.02,0-.03,0c0-.08,0-.16,0-.23.01,0,.02,0,.03,0,0,.08,0,.16,0,.23Z"/>
      <path class="cls-1" d="m17.01,5.59c-.07-.76.65-1.43,1.43-1.42.8,0,1.44.64,1.44,1.42,0,.75-.64,1.4-1.37,1.45-.8.06-1.59-.74-1.49-1.45Z"/>
      <path class="cls-1" d="m5.89,11.82c0,.13,0,.26,0,.38-.07-.13-.07-.26,0-.38Z"/>
      <path class="cls-1" d="m11.84,18.2c.11-.07.22-.06.34,0-.11,0-.22,0-.34,0Z"/>
      <path class="cls-1" d="m18.14,11.37c-.07-.7-.25-1.35-.54-1.98-.4-.85-.95-1.59-1.69-2.17-.47-.37-.98-.68-1.54-.9-.56-.22-1.13-.36-1.73-.43-.61-.07-1.22-.05-1.82.07-.7.13-1.36.39-1.97.76-.96.58-1.71,1.36-2.26,2.34-.36.64-.57,1.33-.68,2.05-.03.22-.14.46-.02.7-.03.13-.03.26,0,.38-.05.07-.06.15-.04.22.07.3.07.6.13.9.26,1.17.82,2.17,1.65,3.03.63.65,1.37,1.13,2.21,1.45.64.24,1.31.38,2,.39.11-.03.22-.03.34,0,.33-.03.68-.03,1-.1,1.03-.23,1.97-.65,2.78-1.35.6-.51,1.09-1.1,1.46-1.78.6-1.12.85-2.31.72-3.59Zm-2.11.78c-.06.83-.3,1.61-.82,2.27-.54.7-1.23,1.2-2.1,1.45-.31.09-.62.1-.93.17-.11-.03-.23-.03-.34,0-.82-.06-1.58-.3-2.22-.81-.8-.63-1.33-1.43-1.53-2.46-.17-.88-.08-1.72.32-2.5.59-1.16,1.52-1.91,2.82-2.16,1.27-.24,2.39.06,3.39.88.76.62,1.16,1.44,1.35,2.38.03.16.05.33.06.5.02.09.02.19,0,.28Z"/>
      <path class="cls-1" d="m11.84,16.04c.11-.07.23-.07.34,0-.11,0-.23,0-.34,0Z"/>
      <path class="cls-1" d="m16.03,12.15c0-.09,0-.19,0-.28.06.09.06.19,0,.28Z"/>
    </g>
  </g>
</svg>