<?xml version="1.0" encoding="UTF-8"?>
<svg id="Camada_2" data-name="Camada 2" xmlns="http://www.w3.org/2000/svg" viewBox="0 0 24 24">
  <defs>
    <style>
      .cls-1 {
        fill: #fff;
      }
    </style>
  </defs>
  <g id="Camada_1-2" data-name="Camada 1">
    <g>
      <path class="cls-1" d="m24,12.09c-.08-.14-.08-.28,0-.42v.42Z"/>
      <path class="cls-1" d="m0,11.48c.07.09.07.19,0,.28v-.28Z"/>
      <path class="cls-1" d="m11.48.04s-.09,0-.14,0c-.01,0-.02-.02-.01-.03,0,0,0-.01.01-.01h.14s.02.02.01.03c0,0-.01.01-.02.01Z"/>
      <path class="cls-1" d="m12.57.04c-.05,0-.11.02-.14-.04h.14s.02.02.02.03c0,0,0,.01-.01.01Z"/>
      <path class="cls-1" d="m.04,11.2s0,.08-.04.1v-.09s.03-.02.04,0Z"/>
      <path class="cls-1" d="m24,11.48c-.07-.03-.07-.06,0-.09v.09Z"/>
      <path class="cls-1" d="m11.2.04s-.08.02-.09-.04h.09s.02.02.01.03c0,0-.01.01-.02.01Z"/>
      <path class="cls-1" d="m11.35,0s0,.03,0,.04c-.03,0-.06,0-.09,0-.01,0-.01-.02-.01-.03,0,0,0-.01.01-.01h.09Z"/>
      <path class="cls-1" d="m0,12.28s.05.06.04.1c-.02.02-.03.02-.04,0v-.09Z"/>
      <path class="cls-1" d="m24,12.42c-.07-.03-.07-.06,0-.09v.09Z"/>
      <path class="cls-1" d="m0,12.37s.03,0,.04,0c0,.03,0,.06,0,.09-.01.02-.03.02-.04,0v-.09Z"/>
      <path class="cls-1" d="m0,12.47s.03,0,.04,0c0,.03,0,.06,0,.09-.01.02-.03.02-.04,0v-.09Z"/>
      <path class="cls-1" d="m0,12.56s.03,0,.04,0c0,.03,0,.06,0,.09-.01.01-.03.01-.04,0v-.09Z"/>
      <path class="cls-1" d="m11.48.04s0-.03,0-.04h.09s-.06.05-.1.04Z"/>
      <path class="cls-1" d="m12.57.04s0-.03,0-.04h.09s.02.02.02.03c0,0,0,.01-.01.01-.03,0-.06,0-.09,0Z"/>
      <path class="cls-1" d="m12.66.04s0-.03,0-.04h.09s.02.02.02.03c0,0,0,.01-.01.01-.03,0-.06,0-.09,0Z"/>
      <path class="cls-1" d="m12.75.04s0-.03,0-.04h.09c-.01.06-.05.05-.09.04Z"/>
      <path class="cls-1" d="m0,11.01c.06.01.04.05.04.09-.01.02-.03.02-.04,0v-.09Z"/>
      <path class="cls-1" d="m0,11.11s.03,0,.04,0c0,.03,0,.06,0,.09-.01,0-.03,0-.04,0v-.09Z"/>
      <path class="cls-1" d="m0,12.65s.03,0,.04,0c0,.03-.01.04-.04.05v-.05Z"/>
      <path class="cls-1" d="m11.25,0s0,.03,0,.04c-.02,0-.03,0-.05,0,0-.01,0-.03,0-.04h.05Z"/>
      <path class="cls-1" d="m0,23.95s.03,0,.04,0h.02s0,.03-.01.05c-.04,0-.06,0-.05-.05Z"/>
      <path class="cls-1" d="m.05,24s0-.03.01-.05c.01,0,.03,0,.04,0,.01.01.01.02,0,.03,0,0,0,.01-.01.01h-.05Z"/>
      <path class="cls-1" d="m.1,24s0-.03,0-.04c.02,0,.03,0,.05,0,0,.01,0,.03,0,.04h-.05Z"/>
      <path class="cls-1" d="m24,11.25c-.08-.19-.03-.4-.05-.6-.13-1.28-.47-2.5-1.01-3.66-.89-1.91-2.17-3.51-3.89-4.74-1.47-1.05-3.08-1.76-4.86-2.09-.41-.08-.83-.08-1.25-.16h-.09s-.07.02-.11.02c-.03,0-.06,0-.09,0-.03,0-.06,0-.09,0-.05,0-.1.02-.14-.02h-.84s-.07.02-.11.02c-.04,0-.08,0-.12,0-.03,0-.06,0-.09,0-.02,0-.04,0-.06,0-.04,0-.07,0-.1-.02h-.09c-.19.06-.38.03-.58.05-1.3.16-2.54.52-3.71,1.09-1.53.74-2.85,1.76-3.96,3.05C1.46,5.72.6,7.47.17,9.44c-.1.47-.12.95-.17,1.43v.14s.02.07.02.1c0,.03,0,.05,0,.08,0,.03,0,.07-.02.1v.19c.04.09.04.19,0,.28v.52s.02.07.02.1c0,.03,0,.06,0,.08,0,.03,0,.05,0,.08,0,.03,0,.05,0,.08,0,.03,0,.05-.02.07v.19c.05.26.03.53.06.79.18,1.27.61,2.47,1.19,3.61.08.16.11.3.07.47-.34,1.55-.69,3.09-1.02,4.64-.11.5-.27,1-.28,1.52,0,.03.02.05.04.06.01,0,.03,0,.04,0,.03,0,.05,0,.08,0,.18,0,.36-.02.53-.05.72-.16,1.43-.32,2.15-.49,1.12-.26,2.24-.51,3.36-.77.2-.05.39-.07.59.03,1.01.51,2.09.83,3.2,1.01.66.11,1.33.2,2,.15.12-.04.24-.04.36,0,.47-.02.93-.05,1.39-.12,2.61-.41,4.84-1.55,6.71-3.4,1.03-1.02,1.86-2.19,2.46-3.51.51-1.12.84-2.28.99-3.5.03-.24-.04-.48.07-.71v-.19s-.03-.06,0-.09v-.23c-.04-.14-.04-.28,0-.42v-.19s-.03-.06,0-.09v-.14Zm-1.92.75c-.02,1.09-.2,2.16-.57,3.19-.38,1.06-.92,2.03-1.63,2.92-.34.42-.7.81-1.09,1.17-.54.5-1.14.93-1.78,1.3-.94.54-1.93.91-2.98,1.13-.41.09-.82.15-1.24.18-.23.01-.46.08-.69.04-.11-.03-.22-.03-.34,0-.51.01-1.01-.06-1.51-.14-1.14-.2-2.23-.59-3.24-1.15-.13-.07-.28-.08-.41-.05-.98.22-1.95.47-2.93.69-.34.08-.68.15-1.01.23-.12.03-.18.01-.14-.15.23-1.07.46-2.14.71-3.21.07-.28.12-.56.19-.84.05-.18-.11-.31-.19-.45-.52-.89-.87-1.83-1.12-2.82-.25-.98-.28-1.97-.22-2.96.06-1.05.33-2.07.75-3.04.43-1,1-1.9,1.72-2.72.82-.93,1.78-1.66,2.86-2.25.96-.53,1.99-.85,3.06-1.04.39-.07.79-.13,1.19-.1.22.02.44-.09.67-.04.08.04.16,0,.24.04,1.26,0,2.46.31,3.62.8.95.4,1.81.95,2.59,1.63.96.84,1.73,1.82,2.34,2.94.49.9.81,1.85,1,2.84.1.52.15,1.05.16,1.58.03.1.03.19,0,.29Z"/>
      <path class="cls-1" d="m11.76,21.93c.11-.07.22-.07.34,0-.11,0-.22,0-.34,0Z"/>
      <path class="cls-1" d="m12.38,23.8c-.11,0-.23,0-.34,0,.11-.07.23-.07.34,0Z"/>
      <path class="cls-1" d="m22.08,12v-.29c.06.1.07.19,0,.29Z"/>
      <path class="cls-1" d="m12.38,1.92c-.08,0-.17.03-.24-.04.08,0,.17-.04.24.04Z"/>
      <path class="cls-1" d="m8.77,6.65c.33.06.48.3.6.58.25.62.49,1.25.77,1.85.18.38.02.66-.17.95-.14.21-.32.37-.5.55-.24.22-.19.36-.08.56.38.64.83,1.23,1.36,1.75.69.67,1.51,1.16,2.4,1.55.29.13.44.06.7-.26.26-.32.52-.64.77-.97.12-.16.25-.21.45-.13.72.27,1.4.64,2.09.97.53.26.56.34.43.95-.07.34-.13.66-.35.94-.31.4-.73.66-1.19.85-.74.31-1.5.21-2.23-.01-.75-.22-1.5-.46-2.19-.83-.57-.3-1.1-.67-1.6-1.09-.34-.29-.64-.61-.96-.92-.55-.54-.99-1.16-1.44-1.78-.42-.59-.79-1.19-.99-1.89-.08-.29-.14-.58-.14-.87-.02-.08-.02-.16,0-.23,0-.92.4-1.65,1.07-2.26.17-.15.38-.18.58-.23.2-.02.41-.02.61,0Z"/>
      <path class="cls-1" d="m8.77,6.65c-.2,0-.41,0-.61,0,.2-.06.41-.06.61,0Z"/>
      <path class="cls-1" d="m6.51,9.14c0,.08,0,.16,0,.23-.06-.08-.06-.16,0-.23Z"/>
    </g>
  </g>
</svg>