<?xml version="1.0" encoding="UTF-8"?>
<svg id="Camada_2" data-name="Camada 2" xmlns="http://www.w3.org/2000/svg" viewBox="0 0 24 16.78">
  <defs>
    <style>
      .cls-1 {
        fill: #fff;
      }
    </style>
  </defs>
  <g id="Camada_1-2" data-name="Camada 1">
    <path class="cls-1" d="m24,8.79c-.03-.06-.06-.12-.04-.19.04-.17,0-.33.02-.5-.01-.14.02-.27-.02-.41-.03-.4,0-.8-.04-1.21-.04-.57-.06-1.15-.11-1.72-.05-.62-.13-1.22-.26-1.83-.25-1.18-.92-2-2.09-2.38-.55-.18-1.13-.21-1.7-.27-.76-.08-1.52-.12-2.28-.15-.74-.03-1.47-.04-2.21-.06-.1-.05-.21,0-.31-.04-.17.06-.33.04-.5-.02-.1-.03-.2-.02-.3,0-.05,0-.1,0-.15,0-.1-.03-.21-.02-.31,0-.05,0-.09,0-.14,0-.08-.03-.17,0-.26-.01-.12,0-.24,0-.36,0-.17,0-.33,0-.5,0-.31,0-.62,0-.93,0-.18,0-.36,0-.54,0-.1,0-.21,0-.31,0-.09,0-.17,0-.26,0-.1,0-.19-.02-.29.01-.05,0-.1,0-.15,0-.1-.02-.2-.03-.3,0-.21.02-.42.05-.64.06-.59.03-1.17,0-1.76.04-.71.05-1.43.06-2.14.1-.78.04-1.56.11-2.33.26-1.09.21-1.81.87-2.21,1.87-.27.67-.33,1.39-.4,2.11C.1,5.46.02,6.47.05,7.48c0,.09-.09.18-.01.27-.03.1,0,.21-.02.31,0,.21,0,.42,0,.63,0,.1-.02.21.02.31-.09.09.01.18.01.27-.02.95.05,1.9.14,2.85.06.6.13,1.19.26,1.78.27,1.18.98,1.99,2.14,2.34.79.24,1.62.26,2.43.32.52.04,1.05.09,1.57.1.88,0,1.76.16,2.64.11.1,0,.2,0,.3,0,0,0,.48,0,.58,0,.01,0,.02,0,.03,0,.25,0,.25-.06.27,0,.05,0,.09,0,.14,0,.12-.05.25-.01.38-.02.16,0,.32,0,.48,0,.15,0,.29,0,.44,0,.09,0,.18,0,.27,0,.16,0,.33,0,.49,0,.18,0,.36,0,.54,0,.1,0,.21.02.31-.02.03,0,.06,0,.1,0,.1.03.2,0,.3.02.1,0,.2.02.3-.02l.75-.02c.1-.03.2-.03.3,0,.51.05,1.01-.04,1.51-.04.3,0,.59-.02.89-.03.81-.03,1.61-.08,2.41-.16.5-.05,1-.09,1.48-.25.85-.29,1.47-.84,1.82-1.68.19-.45.25-.92.34-1.4.13-.76.17-1.52.23-2.28.05-.6.04-1.2.06-1.81.04-.08,0-.18.04-.26Zm-9.57.4c-.82.47-1.63.95-2.45,1.42-.78.44-1.56.88-2.34,1.32-.05-.06-.03-.13-.03-.19,0-2.25,0-4.49,0-6.74,0-.06-.02-.13.03-.19.93.54,1.86,1.08,2.79,1.62.81.46,1.62.92,2.43,1.38.32.18.64.37.98.57-.48.28-.94.54-1.41.81Z"/>
  </g>
</svg>